<svg width="132" height="94" viewBox="0 0 132 94" fill="none" xmlns="http://www.w3.org/2000/svg">
    <g style="mix-blend-mode:multiply">
        <path d="M5.84006 5.69946L46.0329 6.50518L45.3748 89.1185H4.67578L5.08075 51.6256L5.43509 21.8676L5.84006 5.69946Z" fill="#2552AA"/>
    </g>
    <g style="mix-blend-mode:multiply">
        <path d="M45.3747 6.50516L85.4157 6.07544L85.8206 89.3871H45.6784L45.2734 51.8941L45.6278 22.1362L45.3747 6.50516Z" fill="white"/>
    </g>
    <g style="mix-blend-mode:multiply">
        <path d="M85.3652 5.69949L125.406 5.26978L127.38 88.5814L85.9727 89.1185L85.6183 51.1959V21.3305L85.3652 5.69949Z" fill="#DA4343"/>
    </g>
    <g filter="url(#filter0_d_297:197)">
        <path fill-rule="evenodd" clip-rule="evenodd" d="M5.27364 4.25837C5.04645 4.49031 5.01821 4.61203 4.99745 5.44783C4.9848 5.95984 4.95787 6.57219 4.93762 6.80853C4.91737 7.04488 4.95382 7.38328 5.01851 7.56054C5.14051 7.89443 5.14952 13.2206 5.03177 15.3847C5.00019 15.9657 4.97103 17.6819 4.96698 19.1985C4.96293 20.7152 4.95696 22.6812 4.95382 23.5675C4.94217 26.8329 4.95523 27.7 5.01932 27.9142C5.05536 28.035 5.03937 28.1333 4.98358 28.1333C4.9201 28.1333 4.87617 28.9426 4.86564 30.3087C4.84802 32.5899 4.83567 32.9623 4.71691 34.7939C4.67672 35.4143 4.64999 35.9945 4.65748 36.0831C4.67065 36.238 4.68117 38.8351 4.67358 40.058C4.67166 40.3829 4.67065 40.7214 4.67156 40.81C4.67763 41.4266 4.55655 44.4502 4.51878 44.6246C4.49317 44.7433 4.50825 44.9024 4.5525 44.9782C4.59664 45.0542 4.602 45.3314 4.56444 45.5944C4.52678 45.8573 4.52152 46.0996 4.5528 46.1327C4.64847 46.2343 4.62164 46.6603 4.51433 46.7421C4.44852 46.7924 4.45763 46.8958 4.54045 47.0376C4.61061 47.1576 4.62843 47.2558 4.58024 47.2558C4.53205 47.2558 4.50906 47.6545 4.52921 48.1421C4.54926 48.6296 4.55493 49.3426 4.54156 49.7266C4.5283 50.1107 4.51878 50.7271 4.5205 51.0964C4.52233 51.4657 4.49884 51.7679 4.46836 51.768C4.43799 51.7681 4.40043 52.9647 4.38484 54.4269L4.38076 54.8108C4.35845 56.9096 4.3523 57.4884 4.35562 58.0671C4.35688 58.2875 4.35952 58.5078 4.36317 58.8121L4.365 58.9656C4.39213 61.2477 4.28633 69.1487 4.22731 69.25C4.1939 69.3076 4.21577 69.664 4.27611 70.0419C4.33645 70.4198 4.37846 70.8016 4.36945 70.8903C4.36044 70.9789 4.34384 71.1964 4.3325 71.3737C4.32116 71.551 4.27904 71.7495 4.23895 71.8148C4.19886 71.8802 4.18894 72.0494 4.21688 72.1908C4.30445 72.6331 4.34455 73.4695 4.27601 73.4247C4.24007 73.4013 4.22215 73.9937 4.23612 74.7413C4.26325 76.184 4.26295 76.2328 4.22164 77.0675C4.20706 77.3629 4.22488 77.8571 4.26143 78.1655C4.29787 78.474 4.29342 78.7641 4.25151 78.8101C4.20959 78.8562 4.21273 79.108 4.25859 79.3699C4.30445 79.6317 4.31913 79.9091 4.29129 79.9862C4.26335 80.0633 4.28897 80.2738 4.34809 80.4538C4.40722 80.6338 4.41693 80.7558 4.36965 80.7248C4.26538 80.6565 4.2833 81.6358 4.3895 81.8121C4.43101 81.8808 4.41137 81.9562 4.34586 81.9792C4.23136 82.0198 4.22164 82.3584 4.28846 83.9699C4.30132 84.2802 4.28907 84.5339 4.26122 84.5338C4.23338 84.5337 4.21799 84.7633 4.2269 85.044C4.24503 85.6084 4.26608 86.8312 4.26882 87.4722C4.26983 87.6998 4.19795 88.1183 4.10906 88.4021C3.95456 88.8959 3.95689 88.9394 4.16322 89.4052C4.42989 90.007 4.63096 90.0678 5.97058 89.9517C6.92732 89.8687 25.3603 89.8 47.3807 89.7974C55.4464 89.7965 58.5964 89.7627 58.6944 89.6764C58.7738 89.6065 58.8303 89.6005 58.8303 89.6619C58.8303 89.7288 59.6681 89.75 61.1336 89.72C62.4004 89.694 67.5143 89.6673 72.4979 89.6605C78.7181 89.6521 81.5823 89.6128 81.6335 89.535C81.6836 89.4587 81.7083 89.4627 81.7094 89.5472C81.7105 89.6391 82.1689 89.6645 83.4197 89.6423C84.3595 89.6255 85.1681 89.586 85.2167 89.5544C85.2653 89.5228 85.6239 89.5329 86.0137 89.5769C86.4035 89.6207 86.8363 89.6237 86.9755 89.5834C87.1147 89.5432 87.6158 89.5298 88.0891 89.5537C88.5624 89.5776 89.018 89.5962 89.1015 89.595C94.8545 89.5151 98.5814 89.4798 106.971 89.4255C112.595 89.3892 118.084 89.3388 119.17 89.3136C120.256 89.2883 122.519 89.2666 124.199 89.2653C127.123 89.2631 127.27 89.2533 127.616 89.0364C127.636 89.0243 127.654 89.0129 127.672 89.0022C127.755 88.9511 127.817 88.9129 127.863 88.8594C128 88.7018 128 88.411 128 87.2644L128 87.1043L128 87.0047C128.001 85.9067 127.933 84.8682 127.813 84.1041C127.78 83.8973 127.743 82.9546 127.731 82.0092C127.719 81.0638 127.659 79.0818 127.597 77.6046C127.455 74.2344 127.375 71.2735 127.317 67.2914C127.292 65.5779 127.248 63.3541 127.221 62.3496C127.165 60.3299 127.074 55.7834 127.016 52.1438C126.996 50.8439 126.943 48.4509 126.9 46.826C126.857 45.2012 126.831 43.5938 126.843 43.254C126.855 42.9142 126.831 42.6362 126.789 42.6362C126.747 42.6361 126.699 41.2704 126.682 39.6013C126.665 37.9322 126.629 36.349 126.6 36.0831C126.572 35.8172 126.54 34.4636 126.529 33.0751C126.515 31.3397 126.47 30.4793 126.386 30.3228C126.319 30.1977 126.291 30.0672 126.323 30.033C126.424 29.9259 126.363 27.3539 126.246 26.8068C126.166 26.4281 126.166 26.2536 126.247 26.1676C126.386 26.0195 126.396 25.5179 126.257 25.6087C126.2 25.6462 126.156 25.5582 126.156 25.4065C126.156 25.2588 126.199 25.1096 126.252 25.075C126.36 25.004 126.331 24.6344 126.166 23.9845C126.105 23.7423 126.057 23.4286 126.061 23.2873C126.091 22.0506 126.032 19.4315 125.975 19.4315C125.935 19.4315 125.899 18.2591 125.894 16.8263C125.89 15.3934 125.858 13.1766 125.823 11.8998C125.785 10.516 125.803 9.08432 125.868 8.35466C125.972 7.16863 125.995 4.65629 125.901 4.49654C125.814 4.34614 124.94 4.17414 124.562 4.23291C124.353 4.26535 123.84 4.3109 123.422 4.334C123.005 4.3571 122.185 4.42402 121.6 4.48279C121.015 4.54155 120.017 4.61933 119.382 4.65564C118.747 4.69195 118.192 4.74492 118.149 4.77339C118.105 4.80175 117.349 4.84837 116.469 4.87684C115.588 4.90542 114.298 4.95354 113.602 4.98395C112.399 5.03637 110.72 5.08429 106.34 5.19139C104.588 5.23415 104.383 5.22072 104.293 5.05689C104.2 4.88812 104.192 4.88887 104.19 5.06624C104.187 5.24339 104.038 5.25725 102.187 5.25306C101.087 5.25059 99.9277 5.28894 99.6102 5.33836C99.2928 5.38788 99.0536 5.39304 99.0786 5.35007C99.1339 5.25488 94.8329 5.30495 94.6863 5.4011C94.6292 5.43859 94.5575 5.42623 94.527 5.3737C94.4964 5.32128 94.0263 5.29291 93.4822 5.31086C89.4334 5.44439 88.2909 5.47372 87.1779 5.47254C86.4819 5.47178 85.8213 5.46545 85.7099 5.45825C85.5986 5.45116 85.1202 5.47393 84.6469 5.50896C83.465 5.5964 78.926 5.61843 78.8022 5.53732C78.7471 5.50111 78.6758 5.49918 78.6439 5.53302C78.612 5.56686 77.7515 5.61209 76.7316 5.63357C72.7339 5.71769 47.2119 5.91633 45.5677 5.87615C45.4285 5.87271 44.6312 5.87636 43.796 5.88421C42.9608 5.89205 41.9129 5.89549 41.4674 5.89194C41.022 5.88829 38.9605 5.90623 36.8863 5.9318C34.1133 5.96607 33.1146 5.94598 33.1135 5.85628C33.1124 5.7713 33.0884 5.77355 33.0344 5.86358C32.9484 6.00732 29.7174 6.0114 29.5063 5.86799C29.4425 5.82469 29.1691 5.83221 28.8988 5.88464C28.6285 5.93717 27.8834 5.96467 27.243 5.94576C25.5352 5.89527 21.3 5.80073 19.9283 5.78247C19.1087 5.77151 18.7382 5.72811 18.7372 5.64292C18.7362 5.56246 18.7066 5.56804 18.6521 5.65914C18.5879 5.76657 18.3596 5.78118 17.6665 5.72231C17.1704 5.68009 16.2634 5.63476 15.6509 5.62143C15.0384 5.60811 14.4917 5.58706 14.436 5.57459C14.2402 5.53087 13.2607 5.56761 13.1781 5.62186C13.1321 5.65194 12.8802 5.59909 12.6183 5.50444C12.3349 5.40196 11.9812 5.35512 11.7451 5.38874C11.5267 5.41979 11.3481 5.41356 11.348 5.37488C11.348 5.33621 10.9722 5.29517 10.5128 5.28378C6.74913 5.19053 6.48287 5.1713 6.2816 4.97804C6.17266 4.8734 6.08357 4.73181 6.08357 4.66338C6.08357 4.59495 5.95833 4.41769 5.80516 4.26954L5.52674 4L5.27364 4.25837ZM8.56398 6.26569C10.3546 6.36925 12.2488 6.43317 14.8916 6.47926C16.3115 6.50397 18.1566 6.55371 18.9919 6.5897C19.8271 6.62569 26.0396 6.67338 32.7973 6.69562C41.8036 6.72517 45.115 6.76857 45.1994 6.85827C45.3158 6.98181 45.3546 13.8488 45.2569 17.0412C45.233 17.8241 45.2362 18.4649 45.264 18.4652C45.349 18.466 45.3497 20.4483 45.2646 20.5058C45.2209 20.5353 45.2271 21.0424 45.2786 21.6326C45.3423 22.3647 45.3385 22.7176 45.2667 22.7429C45.2088 22.7634 45.1908 22.8306 45.2267 22.8921C45.3087 23.033 45.3494 24.176 45.2774 24.317C45.1825 24.5026 45.1779 34.5159 45.2727 34.7037C45.3329 34.8231 45.323 34.8983 45.2434 34.9265C45.1246 34.9686 45.1083 36.6546 45.2247 36.8545C45.2529 36.9029 45.2483 36.99 45.2145 37.048C45.1679 37.1279 45.0855 42.0416 45.0631 46.0632C45.0624 46.2049 45.1111 46.3841 45.1716 46.4613C45.232 46.5386 45.2521 46.6522 45.2161 46.7139C45.1802 46.7755 45.2104 46.8299 45.2833 46.8345C45.3562 46.8391 45.3703 46.8634 45.3146 46.8883C45.2512 46.9166 45.217 47.776 45.2232 49.1857C45.2293 50.5697 45.1964 51.4138 45.1378 51.3754C45.0365 51.309 45.0962 53.224 45.2179 53.9427C45.2554 54.164 45.2504 54.4299 45.207 54.5336C45.0588 54.8872 45.0496 55.2974 45.1183 58.4821C45.1756 61.1347 45.1948 70.3235 45.1579 77.4985C45.1376 81.458 45.1559 84.7574 45.1985 84.8305C45.2411 84.9037 45.2391 84.9638 45.194 84.964C45.149 84.9643 45.1008 85.5997 45.087 86.3761C45.0733 87.1526 45.0191 87.8426 44.9667 87.9097C44.9142 87.9767 44.8755 88.1879 44.8806 88.3792C44.8858 88.5703 44.8564 88.7621 44.8155 88.8056C44.7745 88.8492 43.4805 88.8963 41.9399 88.9105C40.3993 88.9247 39.0796 88.9604 39.0071 88.9899C38.9346 89.0193 38.8961 89.0077 38.9215 88.9641C38.9748 88.8729 37.2475 88.8522 31.1914 88.8712C16.5688 88.9172 9.12871 88.8785 8.26026 88.752C7.75912 88.679 6.85989 88.5898 6.26206 88.5537L5.17503 88.4882L5.0665 88.0605C5.00019 87.7994 4.98227 87.174 5.02043 86.4538C5.05476 85.8052 5.07723 85.0234 5.07045 84.7162C5.0506 83.817 5.06306 81.8344 5.12704 75.7246C5.16015 72.5635 5.19528 68.6115 5.2051 66.9424C5.21502 65.2734 5.25987 63.9077 5.30492 63.9076C5.34997 63.9075 5.35726 63.8566 5.32112 63.7946C5.24195 63.6586 5.19609 62.081 5.27131 62.081C5.30047 62.081 5.31738 61.253 5.30907 60.2409C5.30351 59.5709 5.29269 59.1179 5.27169 58.8192C5.27296 58.8145 5.27364 58.8095 5.27364 58.8044C5.27364 58.7964 5.27196 58.7888 5.26895 58.7819C5.24558 58.4767 5.21034 58.3445 5.15721 58.3088C5.07369 58.2527 5.06549 58.2163 5.13605 58.2152C5.28498 58.2131 5.36587 57.495 5.23304 57.354C5.16572 57.2826 5.17614 57.2467 5.26433 57.2467C5.35291 57.2467 5.37701 57.1629 5.33712 56.994C5.30421 56.8551 5.30796 56.709 5.34532 56.6693C5.38278 56.6296 5.401 56.3504 5.38592 56.0489C5.33023 54.9348 5.32578 53.9162 5.3766 53.9163C5.40546 53.9164 5.43644 52.7924 5.44555 51.4187C5.45466 50.0448 5.46347 48.7275 5.46529 48.4912C5.46701 48.2549 5.46296 47.9164 5.45618 47.7392C5.43937 47.2974 5.57341 39.3413 5.62444 37.7482C5.64722 37.0392 5.69592 34.8879 5.73277 32.9676C5.76952 31.0473 5.82186 29.4378 5.8491 29.3909C5.87623 29.344 5.84808 29.2411 5.78643 29.1623C5.71343 29.0689 5.70604 28.9299 5.76517 28.7641C5.81508 28.6239 5.85912 28.0017 5.86276 27.3813C5.86651 26.7609 5.90285 25.1897 5.94345 23.8898C6.01412 21.6258 6.05381 13.2989 5.99924 12.18C5.97787 11.7428 6.13794 7.56269 6.21518 6.53996C6.23128 6.32617 6.29142 6.27042 6.51 6.26644C6.66105 6.26376 6.81403 6.23035 6.84997 6.19231C6.88581 6.15418 7.05842 6.14193 7.23337 6.16503C7.40842 6.18812 8.00716 6.23346 8.56398 6.26569ZM84.5457 6.44735C84.5457 6.50526 84.5934 6.52137 84.6516 6.48323C84.7232 6.43618 84.7354 6.59045 84.6891 6.96033C84.6396 7.35631 84.6546 7.50682 84.7434 7.50682C84.825 7.50682 84.85 7.6323 84.8181 7.88283C84.7919 8.08963 84.7996 8.25894 84.8352 8.25894C84.8708 8.25904 84.9108 11.2442 84.924 14.8927C84.9372 18.5412 84.9711 22.88 84.9993 24.5344C85.0276 26.1888 85.0771 29.9113 85.1095 32.8065C85.1419 35.7017 85.1858 39.2549 85.2072 40.7026C85.2392 42.8745 85.2493 44.8834 85.2326 45.7517C85.2248 46.1586 85.3773 49.3545 85.406 49.3855C85.4237 49.4048 85.4015 49.557 85.3563 49.7238C85.3097 49.8962 85.3149 50.0702 85.3683 50.1268C85.4261 50.1882 85.4178 50.4464 85.3469 50.7974C85.2827 51.1146 85.2634 51.5642 85.3033 51.8097C85.3847 52.3105 85.3787 53.0118 85.2905 53.3149C85.2434 53.4765 85.2682 53.504 85.4089 53.4467C85.5436 53.3919 85.5618 53.4075 85.484 53.5111C85.3747 53.6565 85.3878 58.9034 85.5041 61.6197C85.5396 62.4479 85.5255 63.3139 85.4726 63.5639C85.4201 63.8118 85.4146 64.0148 85.4604 64.0148C85.5061 64.0148 85.551 66.589 85.5599 69.7354C85.596 82.3645 85.6315 88.4628 85.6698 88.6161C85.7 88.7374 85.6034 88.7854 85.2797 88.8103C85.0431 88.8285 84.8494 88.8037 84.8494 88.7551C84.8494 88.7066 84.4736 88.6774 84.0142 88.6902C80.5626 88.786 77.2161 88.8434 72.1942 88.893C68.9925 88.9247 66.3159 88.9489 66.2463 88.9467C66.1258 88.943 65.8907 88.9443 65.3857 88.9511C63.6015 88.9752 62.072 88.9211 62.0203 88.8323C61.9854 88.7726 61.8885 88.7236 61.805 88.7236C61.7215 88.7236 61.6812 88.7718 61.7155 88.8307C61.7562 88.9005 61.694 88.9039 61.5367 88.8405C61.2716 88.7335 59.6403 88.7156 59.6402 88.8197C59.6402 88.8555 59.1049 88.8736 58.4506 88.86C57.7964 88.8465 56.3499 88.8415 55.2363 88.8491C54.1226 88.8567 52.8925 88.8608 52.5028 88.8584C52.113 88.8559 50.5559 88.8496 49.0426 88.8443C48.8279 88.8436 48.6295 88.8432 48.4462 88.8428C46.8145 88.8395 46.3762 88.8386 46.2332 88.6201C46.1807 88.5399 46.1681 88.4302 46.1508 88.2803C46.1456 88.2345 46.1399 88.185 46.1325 88.1314C46.1082 87.9549 46.0452 87.5495 45.9925 87.2305C45.94 86.9116 45.9186 86.3073 45.9452 85.8876C46.0077 84.8959 45.9622 82.637 45.8711 82.2241C45.8581 82.165 45.856 82.0683 45.8664 82.0092C45.8768 81.9501 45.8806 81.4425 45.8749 80.8812C45.8691 80.3199 45.8749 79.0388 45.8878 78.0343C45.9007 77.0299 45.901 75.8213 45.8886 75.3486C45.876 74.8759 45.8684 71.516 45.8716 67.8822C45.887 50.1019 45.8863 46.333 45.8677 46.2345C45.8566 46.1758 45.8569 46.1036 45.8684 46.074C45.88 46.0445 45.9043 40.63 45.9223 34.0419C45.9404 27.4538 45.9814 21.2417 46.0136 20.2372C46.0457 19.2328 46.094 16.2708 46.121 13.6551C46.154 10.4582 46.2071 8.82606 46.283 8.67555C46.3451 8.55243 46.3735 8.36121 46.3463 8.25056C46.3011 8.06717 46.5715 6.94293 46.6915 6.81562C46.7194 6.78608 48.4257 6.74085 50.4831 6.71539C52.5405 6.68982 54.2466 6.65834 54.2745 6.64545C54.3023 6.63256 54.3684 6.63095 54.4214 6.6418C54.62 6.68295 60.8284 6.65609 64.0443 6.60012C65.8818 6.56821 70.1871 6.5174 73.6116 6.48732C78.9579 6.44026 82.9309 6.35679 82.992 6.29018C83.0615 6.21455 84.5457 6.36474 84.5457 6.44735ZM124.327 5.68428C124.234 5.73714 124.132 5.75314 124.101 5.71995C124.048 5.66419 122.708 5.60145 122.536 5.64668C122.494 5.65764 121.823 5.68901 121.043 5.71662C120.264 5.74412 118.783 5.79891 117.753 5.83833C116.723 5.87776 114.878 5.9289 113.653 5.9521C112.428 5.97531 109.99 6.02322 108.236 6.05857C103.848 6.14719 100.689 6.19017 92.8475 6.26805C89.1446 6.30479 86.0586 6.35507 85.9898 6.37978C85.9022 6.41115 85.8835 6.57036 85.9274 6.91048C85.9662 7.21053 85.9464 7.45236 85.8758 7.5427C85.8002 7.63918 85.763 8.30578 85.7662 9.50469C85.7689 10.5035 85.7706 11.804 85.77 12.3949C85.768 14.528 85.8555 25.2824 85.9125 29.9059C85.9446 32.5057 85.9643 35.1404 85.9561 35.7608C85.9351 37.3639 85.9351 37.3668 86.0008 40.2728C86.0764 43.6154 86.1777 51.8562 86.1579 53.057C86.1496 53.5592 86.1442 54.0184 86.1458 54.0775C86.1473 54.1366 86.1743 56.4329 86.2058 59.1804C86.3375 70.682 86.3853 74.139 86.4322 75.5634C86.5283 78.483 86.5784 80.2922 86.5675 80.4515C86.5366 80.9057 86.5543 82.1337 86.6062 83.1372C86.6384 83.7576 86.6948 84.942 86.7316 85.7693C86.7723 86.684 86.8427 87.3031 86.9114 87.3493C86.9931 87.4043 86.9895 87.4625 86.8987 87.5588C86.8296 87.6322 86.7723 87.8155 86.7715 87.9662C86.7695 88.2937 86.6823 88.4467 86.4439 88.5401C86.3465 88.5782 86.2668 88.6528 86.2668 88.7057C86.2668 88.8089 97.7539 88.7766 98.7295 88.6707C99.0413 88.6369 99.4058 88.6493 99.5394 88.6985C99.6732 88.7477 100.739 88.7345 101.909 88.6692C103.159 88.5994 104.085 88.5899 104.157 88.6463C104.224 88.699 104.322 88.7138 104.375 88.6793C104.479 88.6108 107.148 88.5396 112.944 88.4508C115.004 88.4192 117.214 88.3755 117.854 88.3537C118.494 88.3318 120.425 88.2814 122.145 88.2416C125.03 88.1749 126.291 88.0535 126.668 87.8062C126.757 87.7481 126.776 87.3877 126.739 86.4859C126.71 85.8036 126.726 85.1027 126.773 84.9281C126.82 84.7535 126.828 84.5571 126.789 84.4918C126.751 84.4264 126.711 82.9226 126.7 81.1499C126.689 79.3773 126.652 77.2743 126.617 76.4766C126.582 75.6789 126.53 73.4551 126.502 71.5348C126.474 69.6145 126.433 67.2215 126.411 66.2171C126.388 65.2126 126.345 63.1097 126.315 61.5439C126.285 59.9781 126.238 58.0202 126.21 57.193C126.182 56.3658 126.136 54.5529 126.107 53.1644C126.078 51.7759 126.029 49.6729 125.997 48.4912C125.965 47.3095 125.921 45.3032 125.898 44.0329C125.843 40.9536 125.686 35.5665 125.603 33.8808C125.381 29.4115 125.247 25.6727 125.092 19.7001C125.07 18.8138 125.03 17.8469 125.004 17.5515C124.967 17.1191 124.859 12.3533 124.798 8.45478C124.792 8.0603 124.754 7.70213 124.713 7.65873C124.672 7.61533 124.668 7.17207 124.704 6.67371C124.774 5.71167 124.686 5.48049 124.327 5.68428Z" fill="#1A1A1A"/>
    </g>
    <defs>
        <filter id="filter0_d_297:197" x="0" y="0" width="132" height="94" filterUnits="userSpaceOnUse" color-interpolation-filters="sRGB">
            <feFlood flood-opacity="0" result="BackgroundImageFix"/>
            <feColorMatrix in="SourceAlpha" type="matrix" values="0 0 0 0 0 0 0 0 0 0 0 0 0 0 0 0 0 0 127 0" result="hardAlpha"/>
            <feOffset/>
            <feGaussianBlur stdDeviation="2"/>
            <feComposite in2="hardAlpha" operator="out"/>
            <feColorMatrix type="matrix" values="0 0 0 0 0.101961 0 0 0 0 0.101961 0 0 0 0 0.101961 0 0 0 0.5 0"/>
            <feBlend mode="multiply" in2="BackgroundImageFix" result="effect1_dropShadow_297:197"/>
            <feBlend mode="normal" in="SourceGraphic" in2="effect1_dropShadow_297:197" result="shape"/>
        </filter>
    </defs>
</svg>
